<svg xmlns="http://www.w3.org/2000/svg" xmlns:xlink="http://www.w3.org/1999/xlink" width="1920" zoomAndPan="magnify"
     viewBox="0 0 1440 809.999993" height="1080" preserveAspectRatio="xMidYMid meet" version="1.0">
    <path stroke-linecap="butt" transform="matrix(0.75, 0, 0, 0.75, 303.749991, 337.650003)" fill="none"
          stroke-linejoin="miter" d="M 0.0000120787 1.997913 L 384.000031 1.997913 " stroke="#000000" stroke-width="4"
          stroke-opacity="1" stroke-miterlimit="4"/>
    <path stroke-linecap="butt" transform="matrix(0, 0.75, -0.75, 0, 593.246688, 139.634984)" fill="none"
          stroke-linejoin="miter" d="M 0.00231277 2.000793 L 266.023159 2.000793 " stroke="#000000" stroke-width="4"
          stroke-opacity="1" stroke-miterlimit="4"/>
    <path stroke-linecap="butt" transform="matrix(0.75, 0, 0, 0.75, 438.83804, 138.131689)" fill="none"
          stroke-linejoin="miter" d="M 0.00240481 2.001498 L 203.882623 2.001498 " stroke="#000000" stroke-width="4"
          stroke-opacity="1" stroke-miterlimit="4"/>
    <path stroke-linecap="butt" transform="matrix(0.000000001309, -0.75, 0.75, 0.000000001309, 590.245585, 505.431667)"
          fill="none" stroke-linejoin="miter" d="M -0.00256957 2.000679 L 221.716192 2.000679 " stroke="#000000"
          stroke-width="4" stroke-opacity="1" stroke-miterlimit="4"/>
    <path stroke-linecap="butt" transform="matrix(0.75, 0, 0, 0.75, 591.749976, 502.436059)" fill="none"
          stroke-linejoin="miter" d="M 0.0000313972 2.001922 L 384.000051 2.001922 " stroke="#000000" stroke-width="4"
          stroke-opacity="1" stroke-miterlimit="4"/>
    <path stroke-linecap="butt" transform="matrix(0, 0.75, -0.75, 0, 881.24557, 339.154397)" fill="none"
          stroke-linejoin="miter" d="M 0.00247022 1.999302 L 219.716023 1.999302 " stroke="#000000" stroke-width="4"
          stroke-opacity="1" stroke-miterlimit="4"/>
    <path stroke-linecap="butt" transform="matrix(-0.75, 0, 0, -0.75, 1136.753853, 340.650003)" fill="none"
          stroke-linejoin="miter" d="M -0.0000709551 2.002087 L 342.682238 2.002087 " stroke="#000000" stroke-width="4"
          stroke-opacity="1" stroke-miterlimit="4"/>
    <path stroke-linecap="butt" transform="matrix(0.000000001309, 0.75, -0.75, 0.000000001309, 737.245865, 503.940115)"
          fill="none" stroke-linejoin="miter" d="M 0.00172213 1.999695 L 223.9184 1.999696 " stroke="#000000"
          stroke-width="4" stroke-opacity="1" stroke-miterlimit="4"/>

</svg>