<svg xmlns="http://www.w3.org/2000/svg" xmlns:xlink="http://www.w3.org/1999/xlink" width="1920" zoomAndPan="magnify" viewBox="0 0 1440 809.999993" height="1080" preserveAspectRatio="xMidYMid meet" version="1.0"><rect x="-144" width="1728" fill="#ffffff" y="-80.999999" height="971.999992" fill-opacity="1"/><path stroke-linecap="butt" transform="matrix(0.75, 0, 0, 0.75, 490.499982, 405.75)" fill="none" stroke-linejoin="miter" d="M 0.0000246056 2.000001 L 384.000044 2.000001 " stroke="#000000" stroke-width="4" stroke-opacity="1" stroke-miterlimit="4"/><path stroke-linecap="butt" transform="matrix(0, -0.75, 0.75, 0, 659.998101, 407.248128)" fill="none" stroke-linejoin="miter" d="M -0.00249665 2.002532 L 243.018349 2.002532 " stroke="#000000" stroke-width="4" stroke-opacity="1" stroke-miterlimit="4"/><path stroke-linecap="butt" transform="matrix(0, 0.75, -0.75, 0, 779.999967, 405.75)" fill="none" stroke-linejoin="miter" d="M 0.000000550309 1.999956 L 240.000013 1.999956 " stroke="#000000" stroke-width="4" stroke-opacity="1" stroke-miterlimit="4"/><path stroke-linecap="butt" transform="matrix(0.75, 0, 0, 0.75, 778.499967, 497.249995)" fill="none" stroke-linejoin="miter" d="M 0.0000439241 2.000007 L 196.000054 2.000007 " stroke="#000000" stroke-width="4" stroke-opacity="1" stroke-miterlimit="4"/><path stroke-linecap="butt" transform="matrix(0.75, 0, 0, 0.75, 661.499973, 297.750005)" fill="none" stroke-linejoin="miter" d="M 0.0000360759 1.999993 L 384.000055 1.999993 " stroke="#000000" stroke-width="4" stroke-opacity="1" stroke-miterlimit="4"/><path stroke-linecap="butt" transform="matrix(0, -0.75, 0.75, 0, 840.749964, 407.25)" fill="none" stroke-linejoin="miter" d="M -0.000000650926 2.000048 L 144.000007 2.000048 " stroke="#000000" stroke-width="4" stroke-opacity="1" stroke-miterlimit="4"/></svg>